<mxfile host="Electron" modified="2023-09-24T15:16:22.953Z" agent="Mozilla/5.0 (Windows NT 10.0; Win64; x64) AppleWebKit/537.36 (KHTML, like Gecko) draw.io/21.7.5 Chrome/114.0.5735.289 Electron/25.8.1 Safari/537.36" etag="s5y-kBi55RUIt5pH3_3r" version="21.7.5" type="device">
  <diagram name="Страница — 1" id="svp2YQaz2aHfOG72js31">
    <mxGraphModel dx="872" dy="827" grid="0" gridSize="10" guides="1" tooltips="1" connect="1" arrows="1" fold="1" page="0" pageScale="1" pageWidth="827" pageHeight="1169" math="0" shadow="0">
      <root>
        <mxCell id="0" />
        <mxCell id="1" parent="0" />
        <mxCell id="EyD6WljBZoHVQBXIw3oU-1" value="C" style="ellipse;whiteSpace=wrap;html=1;fontFamily=Helvetica;fontSize=16;" parent="1" vertex="1">
          <mxGeometry x="-45" y="420" width="24" height="24" as="geometry" />
        </mxCell>
        <mxCell id="_d1zq3NgZh4A4bXsV2X5-1" value="A" style="ellipse;whiteSpace=wrap;html=1;fontFamily=Helvetica;fontSize=16;" parent="1" vertex="1">
          <mxGeometry x="-6" y="351" width="24" height="24" as="geometry" />
        </mxCell>
        <mxCell id="_d1zq3NgZh4A4bXsV2X5-2" value="B" style="ellipse;whiteSpace=wrap;html=1;fontFamily=Helvetica;fontSize=16;" parent="1" vertex="1">
          <mxGeometry x="52" y="408" width="24" height="24" as="geometry" />
        </mxCell>
        <mxCell id="_d1zq3NgZh4A4bXsV2X5-3" value="D" style="ellipse;whiteSpace=wrap;html=1;fontFamily=Helvetica;fontSize=16;" parent="1" vertex="1">
          <mxGeometry x="7" y="486" width="24" height="24" as="geometry" />
        </mxCell>
        <mxCell id="_d1zq3NgZh4A4bXsV2X5-4" value="a/0" style="edgeStyle=none;shape=connector;rounded=0;orthogonalLoop=1;jettySize=auto;html=1;labelBackgroundColor=default;fontFamily=Helvetica;fontSize=16;fontColor=default;endArrow=blockThin;endFill=1;" parent="1" source="_d1zq3NgZh4A4bXsV2X5-1" target="_d1zq3NgZh4A4bXsV2X5-2" edge="1">
          <mxGeometry relative="1" as="geometry">
            <mxPoint x="151.85" y="314.57" as="sourcePoint" />
            <mxPoint x="75.85" y="345.57" as="targetPoint" />
            <Array as="points" />
          </mxGeometry>
        </mxCell>
        <mxCell id="_d1zq3NgZh4A4bXsV2X5-5" value="b/1" style="edgeStyle=none;shape=connector;rounded=0;orthogonalLoop=1;jettySize=auto;html=1;labelBackgroundColor=default;fontFamily=Helvetica;fontSize=16;fontColor=default;endArrow=blockThin;endFill=1;" parent="1" source="_d1zq3NgZh4A4bXsV2X5-2" target="_d1zq3NgZh4A4bXsV2X5-1" edge="1">
          <mxGeometry relative="1" as="geometry">
            <mxPoint x="155.46" y="456.57" as="sourcePoint" />
            <mxPoint x="89.46" y="304.57" as="targetPoint" />
            <Array as="points">
              <mxPoint x="75" y="372" />
            </Array>
          </mxGeometry>
        </mxCell>
        <mxCell id="_d1zq3NgZh4A4bXsV2X5-6" value="b/1" style="edgeStyle=none;shape=connector;rounded=0;orthogonalLoop=1;jettySize=auto;html=1;labelBackgroundColor=default;fontFamily=Helvetica;fontSize=16;fontColor=default;endArrow=blockThin;endFill=1;" parent="1" source="_d1zq3NgZh4A4bXsV2X5-1" target="_d1zq3NgZh4A4bXsV2X5-1" edge="1">
          <mxGeometry relative="1" as="geometry">
            <mxPoint x="-41.81999999999999" y="337.07" as="sourcePoint" />
            <mxPoint x="-49.81999999999999" y="329.07" as="targetPoint" />
            <Array as="points">
              <mxPoint x="-36" y="392" />
              <mxPoint x="-44" y="358" />
            </Array>
          </mxGeometry>
        </mxCell>
        <mxCell id="_d1zq3NgZh4A4bXsV2X5-8" style="edgeStyle=none;shape=connector;rounded=0;orthogonalLoop=1;jettySize=auto;html=1;labelBackgroundColor=default;fontFamily=Helvetica;fontSize=16;fontColor=default;endArrow=blockThin;endFill=1;" parent="1" target="_d1zq3NgZh4A4bXsV2X5-1" edge="1">
          <mxGeometry relative="1" as="geometry">
            <mxPoint x="-23" y="329" as="sourcePoint" />
            <mxPoint x="-3" y="342" as="targetPoint" />
          </mxGeometry>
        </mxCell>
        <mxCell id="_d1zq3NgZh4A4bXsV2X5-9" value="b/1" style="edgeStyle=none;shape=connector;rounded=0;orthogonalLoop=1;jettySize=auto;html=1;labelBackgroundColor=default;fontFamily=Helvetica;fontSize=16;fontColor=default;endArrow=blockThin;endFill=1;" parent="1" source="EyD6WljBZoHVQBXIw3oU-1" target="_d1zq3NgZh4A4bXsV2X5-1" edge="1">
          <mxGeometry relative="1" as="geometry">
            <mxPoint x="-81.95" y="459.71" as="sourcePoint" />
            <mxPoint x="-65.95" y="414.71" as="targetPoint" />
            <Array as="points" />
          </mxGeometry>
        </mxCell>
        <mxCell id="_d1zq3NgZh4A4bXsV2X5-10" value="a/1" style="edgeStyle=none;shape=connector;rounded=0;orthogonalLoop=1;jettySize=auto;html=1;labelBackgroundColor=default;fontFamily=Helvetica;fontSize=16;fontColor=default;endArrow=blockThin;endFill=1;" parent="1" source="_d1zq3NgZh4A4bXsV2X5-2" target="EyD6WljBZoHVQBXIw3oU-1" edge="1">
          <mxGeometry relative="1" as="geometry">
            <mxPoint x="127.78" y="520.01" as="sourcePoint" />
            <mxPoint x="42.78" y="450.01" as="targetPoint" />
            <Array as="points" />
          </mxGeometry>
        </mxCell>
        <mxCell id="_d1zq3NgZh4A4bXsV2X5-11" value="a/1" style="edgeStyle=none;shape=connector;rounded=0;orthogonalLoop=1;jettySize=auto;html=1;labelBackgroundColor=default;fontFamily=Helvetica;fontSize=16;fontColor=default;endArrow=blockThin;endFill=1;" parent="1" source="_d1zq3NgZh4A4bXsV2X5-3" target="_d1zq3NgZh4A4bXsV2X5-2" edge="1">
          <mxGeometry x="0.0024" relative="1" as="geometry">
            <mxPoint x="31.310000000000002" y="464.51" as="sourcePoint" />
            <mxPoint x="208.31" y="505.51" as="targetPoint" />
            <Array as="points" />
            <mxPoint as="offset" />
          </mxGeometry>
        </mxCell>
        <mxCell id="_d1zq3NgZh4A4bXsV2X5-12" value="b/0" style="edgeStyle=none;shape=connector;rounded=0;orthogonalLoop=1;jettySize=auto;html=1;labelBackgroundColor=default;fontFamily=Helvetica;fontSize=16;fontColor=default;endArrow=blockThin;endFill=1;" parent="1" source="_d1zq3NgZh4A4bXsV2X5-3" target="_d1zq3NgZh4A4bXsV2X5-3" edge="1">
          <mxGeometry relative="1" as="geometry">
            <mxPoint x="1.9999999999999982" y="496" as="sourcePoint" />
            <mxPoint x="-3.0000000000000018" y="486" as="targetPoint" />
            <Array as="points">
              <mxPoint x="-18" y="535" />
              <mxPoint x="-36" y="498" />
            </Array>
          </mxGeometry>
        </mxCell>
        <mxCell id="_d1zq3NgZh4A4bXsV2X5-13" value="a/0" style="edgeStyle=none;shape=connector;rounded=0;orthogonalLoop=1;jettySize=auto;html=1;labelBackgroundColor=default;fontFamily=Helvetica;fontSize=16;fontColor=default;endArrow=blockThin;endFill=1;" parent="1" source="EyD6WljBZoHVQBXIw3oU-1" target="_d1zq3NgZh4A4bXsV2X5-3" edge="1">
          <mxGeometry relative="1" as="geometry">
            <mxPoint x="-59.849999999999994" y="505.57" as="sourcePoint" />
            <mxPoint x="-135.85" y="536.5699999999999" as="targetPoint" />
            <Array as="points" />
          </mxGeometry>
        </mxCell>
      </root>
    </mxGraphModel>
  </diagram>
</mxfile>
